<svg width="34" height="34" viewBox="0 0 34 34" fill="none" xmlns="http://www.w3.org/2000/svg">
<rect width="34" height="34" rx="17" fill="#FF6838"/>
<path fill-rule="evenodd" clip-rule="evenodd" d="M18.7919 18.2639C17.36 19.6958 15.0384 19.6958 13.6065 18.2639C12.1746 16.832 12.1746 14.5104 13.6065 13.0784C15.0384 11.6465 17.36 11.6465 18.7919 13.0784C20.2239 14.5104 20.2239 16.832 18.7919 18.2639ZM19.2323 19.6469C17.2721 21.1462 14.4565 20.9995 12.6637 19.2067C10.7111 17.2541 10.7111 14.0883 12.6637 12.1356C14.6163 10.183 17.7821 10.183 19.7348 12.1356C21.5275 13.9284 21.6743 16.7438 20.1751 18.704L23.7418 22.2707L22.799 23.2135L19.2323 19.6469Z" fill="white"/>
</svg>
